<?xml version="1.0" encoding="utf-8"?>
<!-- Generator: Adobe Illustrator 21.0.0, SVG Export Plug-In . SVG Version: 6.00 Build 0)  -->
<svg version="1.1" id="Слой_1" xmlns="http://www.w3.org/2000/svg" xmlns:xlink="http://www.w3.org/1999/xlink" x="0px" y="0px"
	 viewBox="0 0 300 200" style="enable-background:new 0 0 300 200;" xml:space="preserve">
<style type="text/css">
	.st0{fill:#FFFFFF;}
	.st1{fill:#3EB5F1;stroke:#000000;stroke-miterlimit:10;}
</style>
<g>
	<path class="st0" d="M150.2,27.3c29.7,0,59.5,0,89.2,0c0,48.8,0,97.5,0,146.3c-59.3,0-118.6,0-178,0c0-48.7,0-97.5,0-146.3
		c28,0,56.1,0,84.1,0c-1.3,0.4-2.8,0.5-4,1.1c-4.7,2.3-8.8,5.3-11,10.7c-1.4,3.3-3.7,5.8-6.8,7.5c-2.4,1.3-4.8,2.7-6.7,4.7
		c-3.8,3.9-8.1,6.9-12.9,9.1c-2.9,1.3-5.5,3.5-8.9,3.3c-2.3-0.1-3.5,1.4-4.3,3.8c-1.1,3.3-3.6,5.6-6.8,6.2
		c-6.2,1.2-11.9,3.6-17.6,6.3c-2.7,1.3-4.4,3.4-4.4,6.3c0,1.9,0.8,4.4,2,5.6c2.8,2.5,8.3,1.7,11.4-0.5c3.2-2.3,5.2-5.5,7.3-8.7
		c2.2-3.3,4.5-6.6,7.1-9.6c2-2.4,5.2-2.6,7.7-0.7c5.9,4.7,12.8,6.1,19.9,6.9c2.8,0.3,3.3-0.3,2.4-3.1c-1.2-3.8-0.3-5.6,3.4-6.3
		c1.7-0.3,2.9-1.2,3.7-2.9c0.3-0.7,0.9-1.2,1.3-1.8c0.2,0.2,0.5,0.3,0.7,0.5c-0.4,1-0.8,2.1-1.2,3.1c-1.2,2.6-1,3.6,0.9,5.2
		c1.7,1.4,5.3,1.7,6.5,0.4c4.3-4.7,5.2-12.3-0.6-17.1c-2.3-1.9-4.9-3.4-7.2-5.2c-0.7-0.6-1.7-1.6-1.7-2.4c0-1.4,1-2.5,2.5-2.8
		c3.5-0.8,6.9-1.7,10.4-2.5c5.8-1.4,10.6-4.5,14.7-8.9c2.6-2.7,1.8-5.9-1.6-7.1C151.2,28,150.7,27.6,150.2,27.3z M214.1,118.3
		c-0.2,0-0.4,0-0.6,0c-0.4-1.7-0.8-3.4-1.1-5.1c-1.4-7.3-2.7-14.6-4.2-21.8c-0.2-0.8-1.1-1.8-1.8-1.9c-3.2-0.2-6.4-0.1-9.6-0.1
		c-2.6,9.5-5.1,18.9-7.6,28.3c-0.5-0.7-0.7-1.4-0.9-2.1c-1.4-7.9-2.8-15.8-4.1-23.7c-0.3-1.7-1.2-2-2.3-1.5c-2.4,1.1-4.7,2.2-7,3.6
		c-0.6,0.3-1.1,1.6-1,2.3c0.8,5.4,1.8,10.8,2.7,16.2c1,5.9,1.9,11.8,2.8,17.8c0.2,1.3,0.7,1.9,2.1,1.8c3.8-0.1,7.6-0.2,11.4,0
		c1.6,0,2.2-0.6,2.6-2.1c1.2-4.6,2.5-9.3,3.8-13.9c0.6-2.2,1.3-4.4,2-6.6c0.6,0.6,0.8,1.2,1,1.8c1.6,6.5,3.2,13,4.8,19.5
		c0.3,1.3,1.1,1.9,2.4,1.8c3-0.1,6-0.1,9,0c1.5,0,2.2-0.4,2.6-2.1c2.8-11.1,5.7-22.2,8.5-33.3c0.9-3.5,0.9-3.6-2.3-5
		c-1-0.5-2-1-3-1.4c-1.2-0.4-2.4-0.8-3.8-1.2C218.5,99.4,216.3,108.9,214.1,118.3z M149.8,78.2c-1,2.8-1.6,5.1-2.5,7.4
		c-1.1,2.7-0.9,3.4,1.8,4c8.4,1.8,16.7,1.5,24.8-1.4c2-0.7,4.2-2,5.6-3.7c2.7-3.3,3.4-7.5,3.1-11.8c-0.4-5.6-2.5-10.2-7.7-12.3
		c-3.2-1.3-6.6-2.4-9.9-3.5c-2.7-0.9-5.4-1.6-8-2.7c-1.7-0.7-3-2.3-2.8-4.5c0.2-2,2.1-3.8,4.4-4.1c5.9-0.7,11.6,0,16.6,3.8
		c0.7,0.5,1.7,0.6,2.9,0.9c0-4.2,0-7.9-0.1-11.6c0-0.4-0.8-1.1-1.4-1.2c-3.3-0.9-6.6-2.3-10-2.4c-4-0.2-8.2-0.1-11.9,1.3
		c-3.6,1.4-6.7,4.5-9.9,7c-0.8,0.6-1.3,1.8-1.6,2.8c-1.7,6.4,0.6,12.5,6.4,15.5c4.5,2.3,9.3,4,14.1,5.7c3.4,1.2,5.6,3.7,5.4,7
		c-0.1,2.3-2.3,4.5-5.5,5.2c-3.8,0.8-7.5,0.9-11.2-0.6C151.3,78.5,150.3,78.3,149.8,78.2z M96.3,123.9c1.7-0.5,3.5-1,5.1-1.7
		c4.5-1.9,8.8-4.2,12.7-7.5c5.9-5.1,12.3-9.6,18.1-14.9c3.4-3.1,6.5-6.8,9-10.8c2-3.1,3-6.9,4.2-10.5c0.6-1.8-0.4-3.1-2-4.1
		c-2.3-1.5-4,0.1-5.7,1.1c-1.4,0.8-1.5,2.2-1.3,3.9c0.2,1.4-0.1,3.1-0.7,4.4c-2.1,4.4-6.2,4.7-10.1,5.2c-2.5,0.3-4.6-0.1-5.5-3.1
		c-0.4-1.2-1.4-1.3-2.2-0.5c-5.2,5.3-11.5,9.2-16.2,15.2c-4,5.1-8,10.2-9.9,16.7C90.7,121.6,91.8,123.6,96.3,123.9z M176.6,132.6
		c-0.4-2.9-0.9-5.6-1.2-8.2c-0.2-1.2-0.7-1.6-1.8-1.6c-6.6,0.1-13.3-0.2-19.5,2.8c-5.8,2.8-10.4,6.9-11.6,13.9
		c-0.2,1.4-0.2,2.8-0.2,4.2c0,3.9,0.2,7.8-0.1,11.6c-0.5,7.7,3,12.7,9.2,15.4c2.9,1.3,6.3,1.8,9.5,2c6.4,0.3,12.7,0.2,19.1,0.3
		c0.7,0,1.3-0.1,1.9-0.2c0-3.5,0-6.8,0-10.4c-4.7,0-9.2,0-13.7,0c-2.6,0-5.2,0-7.7-0.3c-3.2-0.4-5.9-2.9-6.2-6.3
		c-0.4-4.8-0.2-9.6-0.5-14.4c-0.3-3.7,1.5-6.1,4.3-7.4c2-0.9,4.3-1.2,6.5-1.3C168.6,132.4,172.5,132.6,176.6,132.6z M123.2,112.9
		c3.9,1.2,7.2,2.4,10.5,3.2c5.1,1.2,10.2,2.6,15.4,3c7,0.5,14,0.1,21,0c0.8,0,1.7-0.2,2.5-0.3c1.3-0.1,1.7-0.9,1.5-2.1
		c-0.3-2.2-0.7-4.4-1-6.6c-0.2-1.3-0.9-1.5-2.1-1.5c-6.7,0.2-13.4,0.7-20.1,0.2c-4.6-0.3-9.1-1.9-13.6-3.3c-1.6-0.5-2.8-1.7-4.7,0
		C129.9,108.2,126.7,110.3,123.2,112.9z M105.5,124.2c0.3,0.2,0.5,0.5,0.8,0.6c3.2,1,6.4,2.1,9.7,2.8c7.8,1.7,15.6,3.3,23.4,4.8
		c0.8,0.2,1.9-0.5,2.6-1.1c2.1-2,4.1-4.2,6.1-6.3c0.6-0.6,1.2-1.2,1.6-1.7c-5.8-1.2-11.4-2.3-17-3.7c-3.6-0.9-7.2-2.3-10.8-3.3
		c-1.2-0.3-2.8-0.3-3.8,0.3C113.9,119,109.8,121.6,105.5,124.2z M136.7,100.4c11.9,4.9,23.5,4.3,35.5,3.5c-0.6-3.5-1.2-6.5-1.6-9.1
		c-6.2,0.1-12.2,0.3-18.2,0.2c-2.7-0.1-5.3-0.9-8-1.4c-0.5-0.1-1.2-0.1-1.4,0.1C141,95.8,139.1,97.9,136.7,100.4z M225.1,149.6
		c0-1.5,0-2.6,0-3.6c-0.1-3.7-0.8-5-3.8-6c-1.6-0.5-3.3-0.7-4.9-0.6c-3.8,0.3-6.2,2.5-6.2,4.9c0,2.8-0.2,5.7,0.1,8.5
		c0.1,1.1,0.8,2.4,1.6,3.1c3.8,3.6,8.1,2.1,12.4,1.2c0.3-0.1,0.8-0.6,0.8-0.9c0.1-1.6,0-3.1,0-4.8c-8.3,2.2-10,1.9-10.5-1.7
		C218,149.6,221.5,149.6,225.1,149.6z M178.5,151.6c-0.5,0.2-1.1,0.3-1.7,0.6c-2.8,1.1-5.6,1.1-8.4,0.2c-1.3-0.4-2.1-1.1-1.6-2.9
		c1.9,0,3.9,0,5.8,0c1.9,0,3.9,0,5.9,0c0-1.4,0-2.4,0-3.4c0.1-4,0-4.2-3.5-5.8c-4.2-2-10.2-0.8-12,3.8c-0.9,2.4-0.6,5.5-0.3,8.2
		c0.3,3.6,1.9,4.8,5.4,4.8c2.2,0,4.5,0.1,6.7,0c4.4,0,4.6-0.2,3.9-4.9C178.8,152.1,178.7,152,178.5,151.6z M195.6,157.2
		c0-4.2,0.3-8.2-0.1-12.2c-0.3-3.2-2.1-4.5-5.3-4.4c-1.5,0-3,0.4-4.6,0.6c-1.3-2.6-3.5-0.9-5.5-1.4c0,4.7,0,9,0,13.3
		c0,4.6,0,4.6,4.3,4.2c0.2,0,0.4-0.2,0.5-0.3c0.2-3.3,0.4-6.5,0.5-9.8c0.1-1.7,0.7-2.7,2.3-2.8c1.7,0,2.3,1.1,2.3,2.7
		c0.1,2.7,0.3,5.5,0.4,8.2c0,1.4,0.5,2.1,1.9,2C193.5,157.3,194.5,157.3,195.6,157.2z M196.9,140.2c0.2,1.2,0.3,2.4,0.6,3.5
		c0.2,0.9,0.9,1.7,1,2.6c0.2,1.7,0.2,3.4,0.2,5.1c0,2.5,0.7,5,3,5.8c1.9,0.7,4.2,0.6,6.2,0.2c0.6-0.1,0.8-2.6,1.2-4
		c-4.5-0.5-4.5-0.5-4.5-4.7c0-4.8,0-4.8,4.4-5.3c0-1.2,0-2.4,0-3.8c-1.4,0-2.6,0-4.1,0c0-1.2,0.1-2.3,0-3.3c-0.1-0.6-0.6-1.4-1-1.5
		c-1.6-0.2-3.3-0.1-4.7-0.1C198.1,136.8,200,139.4,196.9,140.2z M226.4,139.6c0,5.5,0,10.6,0,15.6c0,1.9,0.9,2.7,2.6,2.6
		c0.6,0,1.3,0,1.9,0.1c1.2,0.1,1.6-0.5,1.5-1.7c-0.1-2.6,0-5.2-0.2-7.8c-0.1-1.9,0.8-2.7,2.5-2.8c1-0.1,2-0.1,2.9-0.2
		c0-2,0-3.7,0-5.9c-1.8,0.7-3.3,1.2-4.6,1.7C231.4,138.5,228.8,140.4,226.4,139.6z"/>
	<path class="st1" d="M150.2,27.3c0.5,0.3,1,0.7,1.5,0.9c3.4,1.3,4.2,4.4,1.6,7.1c-4.1,4.4-8.9,7.5-14.7,8.9
		c-3.5,0.8-6.9,1.7-10.4,2.5c-1.5,0.3-2.5,1.4-2.5,2.8c0,0.8,0.9,1.8,1.7,2.4c2.4,1.8,4.9,3.3,7.2,5.2c5.8,4.8,4.9,12.4,0.6,17.1
		c-1.2,1.3-4.8,1-6.5-0.4c-1.9-1.6-2.1-2.6-0.9-5.2c0.4-1,0.8-2.1,1.2-3.1c-0.2-0.2-0.5-0.3-0.7-0.5c-0.4,0.6-1,1.2-1.3,1.8
		c-0.7,1.7-1.9,2.6-3.7,2.9c-3.7,0.7-4.6,2.5-3.4,6.3c0.9,2.8,0.5,3.4-2.4,3.1c-7.1-0.8-14-2.2-19.9-6.9c-2.4-1.9-5.6-1.7-7.7,0.7
		c-2.6,3-4.9,6.3-7.1,9.6c-2.1,3.2-4.2,6.4-7.3,8.7c-3.1,2.2-8.6,3-11.4,0.5c-1.3-1.1-2.1-3.7-2-5.6c0-2.9,1.8-5,4.4-6.3
		c5.7-2.7,11.4-5,17.6-6.3c3.2-0.6,5.7-2.9,6.8-6.2c0.8-2.4,1.9-3.9,4.3-3.8c3.4,0.1,6-2,8.9-3.3c4.8-2.2,9.1-5.2,12.9-9.1
		c1.9-1.9,4.3-3.4,6.7-4.7c3.1-1.7,5.4-4.2,6.8-7.5c2.2-5.4,6.3-8.4,11-10.7c1.2-0.6,2.7-0.8,4-1.1
		C147.1,27.3,148.7,27.3,150.2,27.3z M116.9,63.3c2-1.3,3.9-2.2,5.3-3.6c0.6-0.6,0.8-2.5,0.4-3.4c-0.3-0.7-1.8-0.9-2.8-1
		c-0.8-0.1-1.7,0.3-2.4,0.7c-4.5,2.4-9,4.9-13.5,7.4c-1.3,0.7-2.6,1.5-4.4,2.6c2.3,1.3,4.1,3,5.8,3c4.2,0.2,8.3-0.5,12.5-0.7
		c1.4-0.1,1.5-0.8,0.9-1.9C118.1,65.4,117.5,64.3,116.9,63.3z"/>
	<path class="st1" d="M214.1,118.3c2.2-9.4,4.3-18.8,6.6-28.6c1.3,0.4,2.6,0.7,3.8,1.2c1,0.4,2,0.9,3,1.4c3.2,1.5,3.2,1.5,2.3,5
		c-2.9,11.1-5.8,22.2-8.5,33.3c-0.4,1.6-1.1,2.1-2.6,2.1c-3-0.1-6-0.1-9,0c-1.3,0-2.1-0.5-2.4-1.8c-1.6-6.5-3.2-13-4.8-19.5
		c-0.1-0.6-0.4-1.2-1-1.8c-0.7,2.2-1.4,4.4-2,6.6c-1.3,4.6-2.6,9.2-3.8,13.9c-0.4,1.5-1,2.2-2.6,2.1c-3.8-0.1-7.6-0.1-11.4,0
		c-1.4,0-1.9-0.5-2.1-1.8c-0.9-5.9-1.9-11.9-2.8-17.8c-0.9-5.4-1.9-10.8-2.7-16.2c-0.1-0.7,0.4-1.9,1-2.3c2.3-1.3,4.6-2.5,7-3.6
		c1.2-0.5,2.1-0.3,2.3,1.5c1.3,7.9,2.7,15.8,4.1,23.7c0.1,0.7,0.3,1.4,0.9,2.1c2.5-9.4,5-18.8,7.6-28.3c3.2,0,6.4-0.1,9.6,0.1
		c0.6,0,1.6,1.1,1.8,1.9c1.5,7.3,2.8,14.6,4.2,21.8c0.3,1.7,0.7,3.4,1.1,5.1C213.8,118.3,214,118.3,214.1,118.3z"/>
	<path class="st1" d="M149.8,78.2c0.6,0.2,1.6,0.3,2.5,0.7c3.7,1.5,7.5,1.5,11.2,0.6c3.2-0.7,5.5-2.9,5.5-5.2c0.1-3.2-2.1-5.8-5.4-7
		c-4.8-1.7-9.6-3.3-14.1-5.7c-5.8-3-8.1-9.1-6.4-15.5c0.3-1,0.8-2.2,1.6-2.8c3.2-2.5,6.2-5.6,9.9-7c3.7-1.4,7.9-1.5,11.9-1.3
		c3.4,0.2,6.7,1.5,10,2.4c0.5,0.2,1.4,0.8,1.4,1.2c0.1,3.7,0.1,7.4,0.1,11.6c-1.2-0.4-2.2-0.4-2.9-0.9c-5-3.9-10.7-4.5-16.6-3.8
		c-2.3,0.3-4.2,2.1-4.4,4.1c-0.2,2.2,1.1,3.8,2.8,4.5c2.6,1.1,5.4,1.8,8,2.7c3.3,1.1,6.7,2.1,9.9,3.5c5.2,2.2,7.3,6.7,7.7,12.3
		c0.3,4.4-0.3,8.5-3.1,11.8c-1.4,1.7-3.5,3-5.6,3.7c-8.1,2.9-16.5,3.2-24.8,1.4c-2.7-0.6-2.9-1.3-1.8-4
		C148.1,83.3,148.8,81,149.8,78.2z"/>
	<path class="st1" d="M96.3,123.9c-4.5-0.3-5.6-2.3-4.3-6.6c1.9-6.5,5.9-11.6,9.9-16.7c4.7-6,11-9.9,16.2-15.2
		c0.8-0.8,1.8-0.7,2.2,0.5c0.9,3,3,3.4,5.5,3.1c3.9-0.5,8-0.8,10.1-5.2c0.6-1.3,0.9-3,0.7-4.4c-0.2-1.7-0.1-3,1.3-3.9
		c1.7-1.1,3.4-2.6,5.7-1.1c1.6,1,2.6,2.3,2,4.1c-1.2,3.6-2.2,7.4-4.2,10.5c-2.5,4-5.6,7.7-9,10.8c-5.8,5.2-12.2,9.8-18.1,14.9
		c-3.9,3.3-8.2,5.6-12.7,7.5C99.8,123,98,123.4,96.3,123.9z"/>
	<path class="st1" d="M176.6,132.6c-4.1,0-8-0.1-11.9,0.1c-2.2,0.1-4.5,0.4-6.5,1.3c-2.8,1.3-4.6,3.6-4.3,7.4
		c0.3,4.8,0.1,9.7,0.5,14.4c0.3,3.4,3,5.9,6.2,6.3c2.6,0.3,5.2,0.3,7.7,0.3c4.5,0,9,0,13.7,0c0,3.6,0,6.9,0,10.4
		c-0.6,0-1.3,0.2-1.9,0.2c-6.4,0-12.8,0.1-19.1-0.3c-3.2-0.2-6.6-0.7-9.5-2c-6.3-2.8-9.8-7.8-9.2-15.4c0.3-3.8,0-7.7,0.1-11.6
		c0-1.4,0-2.8,0.2-4.2c1.2-7.1,5.8-11.1,11.6-13.9c6.2-3,12.9-2.7,19.5-2.8c1.1,0,1.7,0.4,1.8,1.6
		C175.8,127,176.2,129.6,176.6,132.6z"/>
	<path class="st1" d="M123.2,112.9c3.4-2.6,6.6-4.7,9.4-7.3c1.8-1.7,3-0.5,4.7,0c4.5,1.3,9,2.9,13.6,3.3c6.7,0.5,13.4,0,20.1-0.2
		c1.2,0,1.9,0.2,2.1,1.5c0.3,2.2,0.7,4.4,1,6.6c0.2,1.2-0.3,2-1.5,2.1c-0.8,0.1-1.7,0.3-2.5,0.3c-7,0.1-14,0.5-21,0
		c-5.2-0.4-10.3-1.8-15.4-3C130.4,115.3,127.2,114.1,123.2,112.9z"/>
	<path class="st1" d="M105.5,124.2c4.3-2.6,8.3-5.2,12.5-7.5c1-0.6,2.6-0.6,3.8-0.3c3.6,0.9,7.2,2.4,10.8,3.3
		c5.6,1.4,11.2,2.5,17,3.7c-0.4,0.5-1,1.1-1.6,1.7c-2,2.1-4,4.3-6.1,6.3c-0.7,0.6-1.8,1.2-2.6,1.1c-7.8-1.5-15.6-3.1-23.4-4.8
		c-3.3-0.7-6.5-1.8-9.7-2.8C106,124.7,105.8,124.4,105.5,124.2z"/>
	<path class="st1" d="M136.7,100.4c2.3-2.5,4.2-4.6,6.2-6.5c0.3-0.3,1-0.2,1.4-0.1c2.7,0.4,5.3,1.3,8,1.4c6,0.1,12-0.1,18.2-0.2
		c0.5,2.6,1,5.6,1.6,9.1C160.2,104.7,148.6,105.3,136.7,100.4z"/>
	<path class="st1" d="M225.1,149.6c-3.6,0-7.1,0-10.6,0c0.5,3.6,2.2,3.9,10.5,1.7c0,1.7,0,3.3,0,4.8c0,0.3-0.5,0.8-0.8,0.9
		c-4.2,1-8.6,2.4-12.4-1.2c-0.8-0.8-1.5-2-1.6-3.1c-0.2-2.8-0.1-5.6-0.1-8.5c0-2.4,2.4-4.6,6.2-4.9c1.6-0.1,3.4,0.1,4.9,0.6
		c3,0.9,3.7,2.2,3.8,6C225.2,147.1,225.1,148.1,225.1,149.6z M220.6,146c-1.3-2.6-3.9-3.4-5.4-2.1c-0.3,0.3-0.6,0.8-0.6,1.3
		c0,0.3,0.5,0.8,0.7,0.8C217,146.1,218.6,146,220.6,146z"/>
	<path class="st1" d="M178.5,151.6c0.2,0.3,0.3,0.5,0.3,0.6c0.6,4.7,0.5,4.9-3.9,4.9c-2.2,0-4.5,0-6.7,0c-3.5,0-5.1-1.2-5.4-4.8
		c-0.3-2.7-0.6-5.8,0.3-8.2c1.8-4.7,7.7-5.8,12-3.8c3.5,1.6,3.5,1.8,3.5,5.8c0,1,0,2.1,0,3.4c-2.1,0-4,0-5.9,0c-1.9,0-3.9,0-5.8,0
		c-0.5,1.8,0.3,2.5,1.6,2.9c2.8,0.9,5.6,0.9,8.4-0.2C177.4,152,178,151.8,178.5,151.6z M170.5,146C170.5,146,170.5,146.1,170.5,146
		c0.4,0,0.9,0.1,1.3,0c0.6-0.2,1.1-0.5,1.7-0.8c-0.4-0.5-0.7-1.5-1.2-1.6c-1.3-0.3-2.6-0.4-3.9-0.3c-0.5,0.1-0.8,1-1.2,1.6
		c0.5,0.3,1,0.8,1.6,0.9C169.3,146.2,169.9,146,170.5,146z"/>
	<path class="st1" d="M195.6,157.2c-1.1,0.1-2.1,0.1-3.2,0.2c-1.3,0.1-1.8-0.6-1.9-2c-0.1-2.7-0.3-5.5-0.4-8.2
		c-0.1-1.7-0.6-2.8-2.3-2.7c-1.7,0-2.3,1.1-2.3,2.8c-0.1,3.3-0.3,6.5-0.5,9.8c-0.2,0.1-0.4,0.3-0.5,0.3c-4.3,0.4-4.3,0.4-4.3-4.2
		c0-4.3,0-8.6,0-13.3c2,0.5,4.2-1.2,5.5,1.4c1.6-0.2,3.1-0.5,4.6-0.6c3.1-0.1,5,1.2,5.3,4.4C195.9,149,195.6,153,195.6,157.2z"/>
	<path class="st1" d="M196.9,140.2c3.1-0.8,1.2-3.4,2.2-5.3c1.4,0,3.1-0.1,4.7,0.1c0.4,0,1,0.9,1,1.5c0.2,1,0,2,0,3.3
		c1.5,0,2.7,0,4.1,0c0,1.4,0,2.6,0,3.8c-4.5,0.5-4.5,0.5-4.4,5.3c0,4.1,0,4.1,4.5,4.7c-0.4,1.4-0.6,3.9-1.2,4
		c-2,0.4-4.3,0.5-6.2-0.2c-2.3-0.8-3-3.2-3-5.8c0-1.7,0-3.4-0.2-5.1c-0.1-0.9-0.8-1.7-1-2.6C197.2,142.6,197,141.4,196.9,140.2z"/>
	<path class="st1" d="M226.4,139.6c2.4,0.8,5-1.1,6.6,1.6c1.4-0.5,2.9-1.1,4.6-1.7c0,2.2,0,3.9,0,5.9c-0.9,0.1-1.9,0.1-2.9,0.2
		c-1.6,0.1-2.6,0.9-2.5,2.8c0.1,2.6,0.1,5.2,0.2,7.8c0,1.2-0.3,1.8-1.5,1.7c-0.6-0.1-1.3-0.1-1.9-0.1c-1.7,0.1-2.6-0.8-2.6-2.6
		C226.4,150.2,226.4,145.2,226.4,139.6z"/>
	<path class="st0" d="M116.9,63.3c0.6,1,1.3,2.1,1.9,3.2c0.6,1.1,0.5,1.8-0.9,1.9c-4.2,0.3-8.4,0.9-12.5,0.7c-1.8-0.1-3.5-1.8-5.8-3
		c1.8-1.1,3.1-1.9,4.4-2.6c4.5-2.5,9-5,13.5-7.4c0.7-0.4,1.6-0.8,2.4-0.7c1,0.1,2.6,0.3,2.8,1c0.4,0.9,0.2,2.8-0.4,3.4
		C120.7,61.1,118.8,62,116.9,63.3z"/>
	<path class="st0" d="M220.6,146c-2,0-3.6,0-5.3,0c-0.3,0-0.7-0.6-0.7-0.8c0-0.5,0.3-1,0.6-1.3C216.7,142.6,219.3,143.4,220.6,146z"
		/>
	<path class="st0" d="M170.5,146c-0.6,0-1.2,0.1-1.7,0c-0.6-0.2-1.1-0.6-1.6-0.9c0.4-0.6,0.8-1.5,1.2-1.6c1.3-0.1,2.6,0,3.9,0.3
		c0.5,0.1,0.8,1,1.2,1.6c-0.6,0.3-1.1,0.6-1.7,0.8C171.3,146.2,170.9,146.1,170.5,146C170.5,146.1,170.5,146,170.5,146z"/>
</g>
</svg>
